{"asset":{"version":"2.0","generator":"Blockbench 4.9.4 glTF exporter"},"scenes":[{"nodes":[4],"name":"blockbench_export"}],"scene":0,"nodes":[{"translation":[-1.3877787807814457e-17,0,0],"name":"camera"},{"name":"constraint"},{"name":"cube","mesh":0},{"translation":[1.3877787807814457e-17,-6.453171330633722e-16,-4.5102810375396984e-17],"name":"root","children":[2]},{"children":[0,1,3]}],"bufferViews":[{"buffer":0,"byteOffset":0,"byteLength":288,"target":34962,"byteStride":12},{"buffer":0,"byteOffset":288,"byteLength":288,"target":34962,"byteStride":12},{"buffer":0,"byteOffset":576,"byteLength":192,"target":34962,"byteStride":8},{"buffer":0,"byteOffset":768,"byteLength":72,"target":34963},{"buffer":0,"byteOffset":840,"byteLength":876},{"buffer":0,"byteOffset":1716,"byteLength":3504},{"buffer":0,"byteOffset":5220,"byteLength":876},{"buffer":0,"byteOffset":6096,"byteLength":2628},{"buffer":0,"byteOffset":8724,"byteLength":24},{"buffer":0,"byteOffset":8748,"byteLength":96},{"buffer":0,"byteOffset":8844,"byteLength":24},{"buffer":0,"byteOffset":8868,"byteLength":72},{"buffer":0,"byteOffset":8940,"byteLength":68},{"buffer":0,"byteOffset":9008,"byteLength":272},{"buffer":0,"byteOffset":9280,"byteLength":68},{"buffer":0,"byteOffset":9348,"byteLength":204},{"buffer":0,"byteOffset":9552,"byteLength":4},{"buffer":0,"byteOffset":9556,"byteLength":16},{"buffer":0,"byteOffset":9572,"byteLength":4},{"buffer":0,"byteOffset":9576,"byteLength":12},{"buffer":0,"byteOffset":9588,"byteLength":52},{"buffer":0,"byteOffset":9640,"byteLength":208},{"buffer":0,"byteOffset":9848,"byteLength":52},{"buffer":0,"byteOffset":9900,"byteLength":156},{"buffer":0,"byteOffset":10056,"byteLength":20},{"buffer":0,"byteOffset":10076,"byteLength":80},{"buffer":0,"byteOffset":10156,"byteLength":84},{"buffer":0,"byteOffset":10240,"byteLength":252},{"buffer":0,"byteOffset":10492,"byteLength":84},{"buffer":0,"byteOffset":10576,"byteLength":336},{"buffer":0,"byteOffset":10912,"byteLength":84},{"buffer":0,"byteOffset":10996,"byteLength":252},{"buffer":0,"byteOffset":11248,"byteLength":84},{"buffer":0,"byteOffset":11332,"byteLength":336},{"buffer":0,"byteOffset":11668,"byteLength":84},{"buffer":0,"byteOffset":11752,"byteLength":252},{"buffer":0,"byteOffset":12004,"byteLength":84},{"buffer":0,"byteOffset":12088,"byteLength":336},{"buffer":0,"byteOffset":12424,"byteLength":84},{"buffer":0,"byteOffset":12508,"byteLength":252},{"buffer":0,"byteOffset":12760,"byteLength":88},{"buffer":0,"byteOffset":12848,"byteLength":352},{"buffer":0,"byteOffset":13200,"byteLength":88},{"buffer":0,"byteOffset":13288,"byteLength":264},{"buffer":0,"byteOffset":13552,"byteLength":48},{"buffer":0,"byteOffset":13600,"byteLength":192},{"buffer":0,"byteOffset":13792,"byteLength":8},{"buffer":0,"byteOffset":13800,"byteLength":32},{"buffer":0,"byteOffset":13832,"byteLength":8},{"buffer":0,"byteOffset":13840,"byteLength":24},{"buffer":0,"byteOffset":13864,"byteLength":52},{"buffer":0,"byteOffset":13916,"byteLength":208},{"buffer":0,"byteOffset":14124,"byteLength":52},{"buffer":0,"byteOffset":14176,"byteLength":156},{"buffer":0,"byteOffset":14332,"byteLength":28},{"buffer":0,"byteOffset":14360,"byteLength":112},{"buffer":0,"byteOffset":14472,"byteLength":8},{"buffer":0,"byteOffset":14480,"byteLength":32},{"buffer":0,"byteOffset":14512,"byteLength":8},{"buffer":0,"byteOffset":14520,"byteLength":24}],"buffers":[{"byteLength":14544,"uri":"data:application/octet-stream;base64,"}],"accessors":[{"bufferView":0,"componentType":5126,"count":24,"max":[0.0625,0.125,0.375],"min":[-0.0625,0,-0.3125],"type":"VEC3"},{"bufferView":1,"componentType":5126,"count":24,"max":[1,1,1],"min":[-1,-1,-1],"type":"VEC3"},{"bufferView":2,"componentType":5126,"count":24,"max":[0.6875,0.6875],"min":[0,0],"type":"VEC2"},{"bufferView":3,"componentType":5123,"count":36,"max":[23],"min":[0],"type":"SCALAR"},{"bufferView":4,"componentType":5126,"count":219,"max":[7.266670227050781],"min":[0],"type":"SCALAR"},{"bufferView":5,"componentType":5126,"count":219,"max":[0.006110673304647207,0.008379081264138222,0.012361879460513592,1],"min":[-0.007328503765165806,-0.0006108621601015329,-0.002356192097067833,0.9998639822006226],"type":"VEC4"},{"bufferView":6,"componentType":5126,"count":219,"max":[7.266670227050781],"min":[0],"type":"SCALAR"},{"bufferView":7,"componentType":5126,"count":219,"max":[0.0031250000465661287,0.0006249999860301614,-4.5102810375396984e-17],"min":[1.3877787807814457e-17,-0.010625000111758709,-4.5102810375396984e-17],"type":"VEC3"},{"bufferView":8,"componentType":5126,"count":6,"max":[0.25],"min":[0],"type":"SCALAR"},{"bufferView":9,"componentType":5126,"count":6,"max":[0.14748774468898773,0.12072545289993286,0.07929579168558121,1],"min":[0,0,0,0.9784604907035828],"type":"VEC4"},{"bufferView":10,"componentType":5126,"count":6,"max":[0.25],"min":[0],"type":"SCALAR"},{"bufferView":11,"componentType":5126,"count":6,"max":[1.3877787807814457e-17,-6.453171330633722e-16,-4.5102810375396984e-17],"min":[-0.04749999940395355,-0.12187500298023224,-0.06062500178813934],"type":"VEC3"},{"bufferView":12,"componentType":5126,"count":17,"max":[0.800000011920929],"min":[0],"type":"SCALAR"},{"bufferView":13,"componentType":5126,"count":17,"max":[0.3058081567287445,0.30708590149879456,0.16714100539684296,0.9551795721054077],"min":[0.21745580434799194,0.16866271197795868,0.08587818592786789,0.9022550582885742],"type":"VEC4"},{"bufferView":14,"componentType":5126,"count":17,"max":[0.800000011920929],"min":[0],"type":"SCALAR"},{"bufferView":15,"componentType":5126,"count":17,"max":[0.08062499761581421,-0.12187500298023224,-0.019999999552965164],"min":[-0.12187500298023224,-0.22624999284744263,-0.019999999552965164],"type":"VEC3"},{"bufferView":16,"componentType":5126,"count":1,"max":[0],"min":[0],"type":"SCALAR"},{"bufferView":17,"componentType":5126,"count":1,"max":[0.26309341192245483,0.2373841404914856,0.13603520393371582,0.9251621961593628],"min":[0.26309341192245483,0.2373841404914856,0.13603520393371582,0.9251621961593628],"type":"VEC4"},{"bufferView":18,"componentType":5126,"count":1,"max":[0],"min":[0],"type":"SCALAR"},{"bufferView":19,"componentType":5126,"count":1,"max":[0.030625000596046448,-0.07249999791383743,-0.019999999552965164],"min":[0.030625000596046448,-0.07249999791383743,-0.019999999552965164],"type":"VEC3"},{"bufferView":20,"componentType":5126,"count":13,"max":[0.6000000238418579],"min":[0],"type":"SCALAR"},{"bufferView":21,"componentType":5126,"count":13,"max":[0.08831817656755447,0.06418801099061966,0.09769490361213684,1],"min":[-0.0051791127771139145,-0.006936619058251381,-0.0009689028956927359,0.9892095327377319],"type":"VEC4"},{"bufferView":22,"componentType":5126,"count":13,"max":[0.6000000238418579],"min":[0],"type":"SCALAR"},{"bufferView":23,"componentType":5126,"count":13,"max":[1.3877787807814457e-17,-6.453171330633722e-16,0.028750000521540642],"min":[1.3877787807814457e-17,-0.07874999940395355,-0.07500000298023224],"type":"VEC3"},{"bufferView":24,"componentType":5126,"count":5,"max":[0.4000000059604645],"min":[0],"type":"SCALAR"},{"bufferView":25,"componentType":5126,"count":5,"max":[0,0,0.002617990830913186,1],"min":[0,0,-0.001090830541215837,0.9999966025352478],"type":"VEC4"},{"bufferView":26,"componentType":5126,"count":21,"max":[1],"min":[0],"type":"SCALAR"},{"bufferView":27,"componentType":5126,"count":21,"max":[-0.0043750000186264515,0.008124999701976776,0.02250000089406967],"min":[-0.00937500037252903,-0.009999999776482582,0.02250000089406967],"type":"VEC3"},{"bufferView":28,"componentType":5126,"count":21,"max":[1],"min":[0],"type":"SCALAR"},{"bufferView":29,"componentType":5126,"count":21,"max":[0.0010466412641108036,0.01754649728536606,0.10495553910732269,0.998615026473999],"min":[-0.0017150407657027245,-0.016286879777908325,0.05102451145648956,0.9943705797195435],"type":"VEC4"},{"bufferView":30,"componentType":5126,"count":21,"max":[1],"min":[0],"type":"SCALAR"},{"bufferView":31,"componentType":5126,"count":21,"max":[-0.0043750000186264515,-0.032499998807907104,0.02250000089406967],"min":[-0.00937500037252903,-0.05062500014901161,0.02250000089406967],"type":"VEC3"},{"bufferView":32,"componentType":5126,"count":21,"max":[1],"min":[0],"type":"SCALAR"},{"bufferView":33,"componentType":5126,"count":21,"max":[0.000014987038412073161,0.008028427138924599,0.002356148324906826,0.9999990463256836],"min":[-0.000011727676792361308,-0.0074175759218633175,-0.001832592417486012,0.9999676942825317],"type":"VEC4"},{"bufferView":34,"componentType":5126,"count":21,"max":[1],"min":[0],"type":"SCALAR"},{"bufferView":35,"componentType":5126,"count":21,"max":[0.006874999962747097,-0.010625000111758709,0.013124999590218067],"min":[-0.006874999962747097,-0.026249999180436134,0.008124999701976776],"type":"VEC3"},{"bufferView":36,"componentType":5126,"count":21,"max":[1],"min":[0],"type":"SCALAR"},{"bufferView":37,"componentType":5126,"count":21,"max":[0.000011697239642671775,0.006021348759531975,0.0023561681155115366,0.9999990463256836],"min":[-0.000008529249498678837,-0.00584681099280715,-0.001832592417486012,0.9999814033508301],"type":"VEC4"},{"bufferView":38,"componentType":5126,"count":21,"max":[1],"min":[0],"type":"SCALAR"},{"bufferView":39,"componentType":5126,"count":21,"max":[0.006874999962747097,0.009999999776482582,0.026249999180436134],"min":[-0.006874999962747097,-0.0043750000186264515,0.021250000223517418],"type":"VEC3"},{"bufferView":40,"componentType":5126,"count":22,"max":[0.699999988079071],"min":[0],"type":"SCALAR"},{"bufferView":41,"componentType":5126,"count":22,"max":[0.07733884453773499,0.048983026295900345,0.06362234801054001,1],"min":[-0.40274667739868164,0,-0.0013898570323362947,0.9153114557266235],"type":"VEC4"},{"bufferView":42,"componentType":5126,"count":22,"max":[0.699999988079071],"min":[0],"type":"SCALAR"},{"bufferView":43,"componentType":5126,"count":22,"max":[0.30000001192092896,-6.453171330633722e-16,0.25312501192092896],"min":[-0.0037499999161809683,-0.40312498807907104,-0.02437499910593033],"type":"VEC3"},{"bufferView":44,"componentType":5126,"count":12,"max":[0.699999988079071],"min":[0],"type":"SCALAR"},{"bufferView":45,"componentType":5126,"count":12,"max":[0.0005999567219987512,0.0023643989115953445,0.0037856935523450375,1],"min":[-0.00938994437456131,-0.00015002342115622014,-0.0007090397994033992,0.9999459385871887],"type":"VEC4"},{"bufferView":46,"componentType":5126,"count":2,"max":[0.30000001192092896],"min":[0],"type":"SCALAR"},{"bufferView":47,"componentType":5126,"count":2,"max":[-0.0017422768287360668,-0.0017483691917732358,0.00864972174167633,0.9999954104423523],"min":[-0.00864972174167633,-0.0088020209223032,0.0017422768287360668,0.9998864531517029],"type":"VEC4"},{"bufferView":48,"componentType":5126,"count":2,"max":[0.30000001192092896],"min":[0],"type":"SCALAR"},{"bufferView":49,"componentType":5126,"count":2,"max":[-0.0062500000931322575,0.0625,0.0625],"min":[-0.0625,0.0062500000931322575,0.0062500000931322575],"type":"VEC3"},{"bufferView":50,"componentType":5126,"count":13,"max":[0.4000000059604645],"min":[0],"type":"SCALAR"},{"bufferView":51,"componentType":5126,"count":13,"max":[0,0.4177951216697693,0.3039734661579132,1],"min":[-0.19100208580493927,0,0,0.8346050381660461],"type":"VEC4"},{"bufferView":52,"componentType":5126,"count":13,"max":[0.4000000059604645],"min":[0],"type":"SCALAR"},{"bufferView":53,"componentType":5126,"count":13,"max":[0.45249998569488525,-6.453171330633722e-16,0.23000000417232513],"min":[1.3877787807814457e-17,-0.4281249940395355,-4.5102810375396984e-17],"type":"VEC3"},{"bufferView":54,"componentType":5126,"count":7,"max":[0.36667001247406006],"min":[0],"type":"SCALAR"},{"bufferView":55,"componentType":5126,"count":7,"max":[0,0,0.003272480797022581,1],"min":[-0.0030543177854269743,-0.0000061399305195664056,0,0.9999929070472717],"type":"VEC4"},{"bufferView":56,"componentType":5126,"count":2,"max":[0.3333333432674408],"min":[0],"type":"SCALAR"},{"bufferView":57,"componentType":5126,"count":2,"max":[-0.0017422768287360668,-0.0017483691917732358,0.00864972174167633,0.9999954104423523],"min":[-0.00864972174167633,-0.0088020209223032,0.0017422768287360668,0.9998864531517029],"type":"VEC4"},{"bufferView":58,"componentType":5126,"count":2,"max":[0.3333333432674408],"min":[0],"type":"SCALAR"},{"bufferView":59,"componentType":5126,"count":2,"max":[-0.0062500000931322575,0.0625,0.0625],"min":[-0.0625,0.0062500000931322575,0.0062500000931322575],"type":"VEC3"}],"materials":[{"pbrMetallicRoughness":{"metallicFactor":0,"roughnessFactor":1},"alphaMode":"MASK","alphaCutoff":0.05,"doubleSided":true}],"meshes":[{"primitives":[{"mode":4,"attributes":{"POSITION":0,"NORMAL":1,"TEXCOORD_0":2},"indices":3,"material":0}]}],"animations":[{"name":"idle","samplers":[{"input":4,"output":5,"interpolation":"LINEAR"},{"input":6,"output":7,"interpolation":"LINEAR"}],"channels":[{"sampler":0,"target":{"node":3,"path":"rotation"}},{"sampler":1,"target":{"node":3,"path":"translation"}}]},{"name":"run_start","samplers":[{"input":8,"output":9,"interpolation":"LINEAR"},{"input":10,"output":11,"interpolation":"LINEAR"}],"channels":[{"sampler":0,"target":{"node":3,"path":"rotation"}},{"sampler":1,"target":{"node":3,"path":"translation"}}]},{"name":"run","samplers":[{"input":12,"output":13,"interpolation":"LINEAR"},{"input":14,"output":15,"interpolation":"LINEAR"}],"channels":[{"sampler":0,"target":{"node":3,"path":"rotation"}},{"sampler":1,"target":{"node":3,"path":"translation"}}]},{"name":"run_hold","samplers":[{"input":16,"output":17,"interpolation":"LINEAR"},{"input":18,"output":19,"interpolation":"LINEAR"}],"channels":[{"sampler":0,"target":{"node":3,"path":"rotation"}},{"sampler":1,"target":{"node":3,"path":"translation"}}]},{"name":"run_end","samplers":[{"input":20,"output":21,"interpolation":"LINEAR"},{"input":22,"output":23,"interpolation":"LINEAR"},{"input":24,"output":25,"interpolation":"LINEAR"}],"channels":[{"sampler":0,"target":{"node":3,"path":"rotation"}},{"sampler":1,"target":{"node":3,"path":"translation"}},{"sampler":2,"target":{"node":0,"path":"rotation"}}]},{"name":"walk_aiming","samplers":[{"input":26,"output":27,"interpolation":"LINEAR"}],"channels":[{"sampler":0,"target":{"node":3,"path":"translation"}}]},{"name":"walk_forward","samplers":[{"input":28,"output":29,"interpolation":"LINEAR"},{"input":30,"output":31,"interpolation":"LINEAR"}],"channels":[{"sampler":0,"target":{"node":3,"path":"rotation"}},{"sampler":1,"target":{"node":3,"path":"translation"}}]},{"name":"walk_sideway","samplers":[{"input":32,"output":33,"interpolation":"LINEAR"},{"input":34,"output":35,"interpolation":"LINEAR"}],"channels":[{"sampler":0,"target":{"node":3,"path":"rotation"}},{"sampler":1,"target":{"node":3,"path":"translation"}}]},{"name":"walk_backward","samplers":[{"input":36,"output":37,"interpolation":"LINEAR"},{"input":38,"output":39,"interpolation":"LINEAR"}],"channels":[{"sampler":0,"target":{"node":3,"path":"rotation"}},{"sampler":1,"target":{"node":3,"path":"translation"}}]},{"name":"draw","samplers":[{"input":40,"output":41,"interpolation":"LINEAR"},{"input":42,"output":43,"interpolation":"LINEAR"},{"input":44,"output":45,"interpolation":"LINEAR"},{"input":46,"output":47,"interpolation":"LINEAR"},{"input":48,"output":49,"interpolation":"LINEAR"}],"channels":[{"sampler":0,"target":{"node":3,"path":"rotation"}},{"sampler":1,"target":{"node":3,"path":"translation"}},{"sampler":2,"target":{"node":0,"path":"rotation"}},{"sampler":3,"target":{"node":1,"path":"rotation"}},{"sampler":4,"target":{"node":1,"path":"translation"}}]},{"name":"put_away","samplers":[{"input":50,"output":51,"interpolation":"LINEAR"},{"input":52,"output":53,"interpolation":"LINEAR"},{"input":54,"output":55,"interpolation":"LINEAR"},{"input":56,"output":57,"interpolation":"LINEAR"},{"input":58,"output":59,"interpolation":"LINEAR"}],"channels":[{"sampler":0,"target":{"node":3,"path":"rotation"}},{"sampler":1,"target":{"node":3,"path":"translation"}},{"sampler":2,"target":{"node":0,"path":"rotation"}},{"sampler":3,"target":{"node":1,"path":"rotation"}},{"sampler":4,"target":{"node":1,"path":"translation"}}]}]}