{"asset":{"version":"2.0","generator":"Blockbench 4.8.3 glTF exporter"},"scenes":[{"nodes":[9],"name":"blockbench_export"}],"scene":0,"nodes":[{"name":"camera","mesh":0},{"translation":[-0.109375,0.6875,1.625],"name":"camera","children":[0]},{"rotation":[-0.21643961393810288,0,0,0.9762960071199334],"translation":[0,-0.09296874999999999,0.1796875],"name":"cube","mesh":1},{"translation":[0,-0.4375,-0.125],"name":"cube","mesh":2},{"translation":[-0.12499999999999997,-1.1875,-0.49999999999999994],"name":"cube","mesh":3},{"rotation":[-0.06676513941912393,0.7631294064708516,-0.6403416192073244,-0.05602263693126991],"translation":[0.2875,-0.1640625,0.7],"name":"RH","children":[4]},{"translation":[-0.125,-1.1875,-0.49999999999999994],"name":"cube","mesh":4},{"rotation":[-0.05010176382867261,-0.7644042463918777,0.6414113929730424,-0.042040294048720346],"translation":[-0.078125,-0.2796875,0.7],"name":"LH","children":[6]},{"name":"root","children":[2,3,5,7]},{"children":[1,8]}],"bufferViews":[{"buffer":0,"byteOffset":0,"byteLength":288,"target":34962,"byteStride":12},{"buffer":0,"byteOffset":288,"byteLength":288,"target":34962,"byteStride":12},{"buffer":0,"byteOffset":576,"byteLength":192,"target":34962,"byteStride":8},{"buffer":0,"byteOffset":768,"byteLength":72,"target":34963},{"buffer":0,"byteOffset":840,"byteLength":288,"target":34962,"byteStride":12},{"buffer":0,"byteOffset":1128,"byteLength":288,"target":34962,"byteStride":12},{"buffer":0,"byteOffset":1416,"byteLength":192,"target":34962,"byteStride":8},{"buffer":0,"byteOffset":1608,"byteLength":72,"target":34963},{"buffer":0,"byteOffset":1680,"byteLength":288,"target":34962,"byteStride":12},{"buffer":0,"byteOffset":1968,"byteLength":288,"target":34962,"byteStride":12},{"buffer":0,"byteOffset":2256,"byteLength":192,"target":34962,"byteStride":8},{"buffer":0,"byteOffset":2448,"byteLength":72,"target":34963},{"buffer":0,"byteOffset":2520,"byteLength":288,"target":34962,"byteStride":12},{"buffer":0,"byteOffset":2808,"byteLength":288,"target":34962,"byteStride":12},{"buffer":0,"byteOffset":3096,"byteLength":192,"target":34962,"byteStride":8},{"buffer":0,"byteOffset":3288,"byteLength":72,"target":34963},{"buffer":0,"byteOffset":3360,"byteLength":288,"target":34962,"byteStride":12},{"buffer":0,"byteOffset":3648,"byteLength":288,"target":34962,"byteStride":12},{"buffer":0,"byteOffset":3936,"byteLength":192,"target":34962,"byteStride":8},{"buffer":0,"byteOffset":4128,"byteLength":72,"target":34963},{"buffer":0,"byteOffset":4200,"byteLength":520},{"buffer":0,"byteOffset":4720,"byteLength":2080},{"buffer":0,"byteOffset":6800,"byteLength":508},{"buffer":0,"byteOffset":7308,"byteLength":1524},{"buffer":0,"byteOffset":8832,"byteLength":24},{"buffer":0,"byteOffset":8856,"byteLength":96},{"buffer":0,"byteOffset":8952,"byteLength":24},{"buffer":0,"byteOffset":8976,"byteLength":72},{"buffer":0,"byteOffset":9048,"byteLength":4},{"buffer":0,"byteOffset":9052,"byteLength":16},{"buffer":0,"byteOffset":9068,"byteLength":4},{"buffer":0,"byteOffset":9072,"byteLength":12},{"buffer":0,"byteOffset":9084,"byteLength":68},{"buffer":0,"byteOffset":9152,"byteLength":272},{"buffer":0,"byteOffset":9424,"byteLength":68},{"buffer":0,"byteOffset":9492,"byteLength":204},{"buffer":0,"byteOffset":9696,"byteLength":52},{"buffer":0,"byteOffset":9748,"byteLength":208},{"buffer":0,"byteOffset":9956,"byteLength":52},{"buffer":0,"byteOffset":10008,"byteLength":156},{"buffer":0,"byteOffset":10164,"byteLength":20},{"buffer":0,"byteOffset":10184,"byteLength":80},{"buffer":0,"byteOffset":10264,"byteLength":84},{"buffer":0,"byteOffset":10348,"byteLength":336},{"buffer":0,"byteOffset":10684,"byteLength":84},{"buffer":0,"byteOffset":10768,"byteLength":252},{"buffer":0,"byteOffset":11020,"byteLength":84},{"buffer":0,"byteOffset":11104,"byteLength":336},{"buffer":0,"byteOffset":11440,"byteLength":84},{"buffer":0,"byteOffset":11524,"byteLength":252},{"buffer":0,"byteOffset":11776,"byteLength":84},{"buffer":0,"byteOffset":11860,"byteLength":336},{"buffer":0,"byteOffset":12196,"byteLength":84},{"buffer":0,"byteOffset":12280,"byteLength":252},{"buffer":0,"byteOffset":12532,"byteLength":84},{"buffer":0,"byteOffset":12616,"byteLength":336},{"buffer":0,"byteOffset":12952,"byteLength":84},{"buffer":0,"byteOffset":13036,"byteLength":252},{"buffer":0,"byteOffset":13288,"byteLength":88},{"buffer":0,"byteOffset":13376,"byteLength":352},{"buffer":0,"byteOffset":13728,"byteLength":88},{"buffer":0,"byteOffset":13816,"byteLength":264},{"buffer":0,"byteOffset":14080,"byteLength":48},{"buffer":0,"byteOffset":14128,"byteLength":192},{"buffer":0,"byteOffset":14320,"byteLength":52},{"buffer":0,"byteOffset":14372,"byteLength":208},{"buffer":0,"byteOffset":14580,"byteLength":52},{"buffer":0,"byteOffset":14632,"byteLength":156},{"buffer":0,"byteOffset":14788,"byteLength":28},{"buffer":0,"byteOffset":14816,"byteLength":112},{"buffer":0,"byteOffset":14928,"byteLength":80},{"buffer":0,"byteOffset":15008,"byteLength":320},{"buffer":0,"byteOffset":15328,"byteLength":76},{"buffer":0,"byteOffset":15404,"byteLength":228}],"buffers":[{"byteLength":15632,"uri":"data:application/octet-stream;base64,"}],"accessors":[{"bufferView":0,"componentType":5126,"count":24,"max":[0.07500000298023224,0.04062499850988388,0],"min":[-0.07500000298023224,-0.04062499850988388,-0.0625],"type":"VEC3"},{"bufferView":1,"componentType":5126,"count":24,"max":[1,1,1],"min":[-1,-1,-1],"type":"VEC3"},{"bufferView":2,"componentType":5126,"count":24,"max":[1,1],"min":[0,0],"type":"VEC2"},{"bufferView":3,"componentType":5123,"count":36,"max":[23],"min":[0],"type":"SCALAR"},{"bufferView":4,"componentType":5126,"count":24,"max":[0.0625,0.38359373807907104,0.11874999850988388],"min":[-0.0625,-0.4273437559604645,-0.18593749403953552],"type":"VEC3"},{"bufferView":5,"componentType":5126,"count":24,"max":[1,1,1],"min":[-1,-1,-1],"type":"VEC3"},{"bufferView":6,"componentType":5126,"count":24,"max":[0.3046875,0.8109375238418579],"min":[0,0],"type":"VEC2"},{"bufferView":7,"componentType":5123,"count":36,"max":[23],"min":[0],"type":"SCALAR"},{"bufferView":8,"componentType":5126,"count":24,"max":[0.0625,0.75,0.4375],"min":[-0.0625,0.5,-0.625],"type":"VEC3"},{"bufferView":9,"componentType":5126,"count":24,"max":[1,1,1],"min":[-1,-1,-1],"type":"VEC3"},{"bufferView":10,"componentType":5126,"count":24,"max":[1,1],"min":[0,0],"type":"VEC2"},{"bufferView":11,"componentType":5123,"count":36,"max":[23],"min":[0],"type":"SCALAR"},{"bufferView":12,"componentType":5126,"count":24,"max":[0.4375,2.0625,0.875],"min":[0.0625,0.9375,0.375],"type":"VEC3"},{"bufferView":13,"componentType":5126,"count":24,"max":[1,1,1],"min":[-1,-1,-1],"type":"VEC3"},{"bufferView":14,"componentType":5126,"count":24,"max":[1,1.5],"min":[0,0],"type":"VEC2"},{"bufferView":15,"componentType":5123,"count":36,"max":[23],"min":[0],"type":"SCALAR"},{"bufferView":16,"componentType":5126,"count":24,"max":[0.4375,2.0625,0.875],"min":[0.0625,0.9375,0.375],"type":"VEC3"},{"bufferView":17,"componentType":5126,"count":24,"max":[1,1,1],"min":[-1,-1,-1],"type":"VEC3"},{"bufferView":18,"componentType":5126,"count":24,"max":[1,1.5],"min":[0,0],"type":"VEC2"},{"bufferView":19,"componentType":5123,"count":36,"max":[23],"min":[0],"type":"SCALAR"},{"bufferView":20,"componentType":5126,"count":130,"max":[7.333333492279053],"min":[0],"type":"SCALAR"},{"bufferView":21,"componentType":5126,"count":130,"max":[0.0014228546060621738,0.00032534284400753677,0.00762927858158946,1],"min":[-0.0035793124698102474,-0.004377456381917,-0.00233048340305686,0.9999603033065796],"type":"VEC4"},{"bufferView":22,"componentType":5126,"count":127,"max":[7.333333492279053],"min":[0],"type":"SCALAR"},{"bufferView":23,"componentType":5126,"count":127,"max":[0.00937500037252903,0.0008463425911031663,0],"min":[-0.0005784490494988859,-0.00616187509149313,0],"type":"VEC3"},{"bufferView":24,"componentType":5126,"count":6,"max":[0.25],"min":[0],"type":"SCALAR"},{"bufferView":25,"componentType":5126,"count":6,"max":[0.2254098653793335,0.22701281309127808,0.08635222166776657,1],"min":[0,0,0,0.9435034990310669],"type":"VEC4"},{"bufferView":26,"componentType":5126,"count":6,"max":[0.25],"min":[0],"type":"SCALAR"},{"bufferView":27,"componentType":5126,"count":6,"max":[0,0,0],"min":[-0.18937499821186066,-0.30937498807907104,-0.12125000357627869],"type":"VEC3"},{"bufferView":28,"componentType":5126,"count":1,"max":[0.0416666679084301],"min":[0.0416666679084301],"type":"SCALAR"},{"bufferView":29,"componentType":5126,"count":1,"max":[0.2254098653793335,0.22701281309127808,0.08635222166776657,0.9435034990310669],"min":[0.2254098653793335,0.22701281309127808,0.08635222166776657,0.9435034990310669],"type":"VEC4"},{"bufferView":30,"componentType":5126,"count":1,"max":[0.0416666679084301],"min":[0.0416666679084301],"type":"SCALAR"},{"bufferView":31,"componentType":5126,"count":1,"max":[-0.18937499821186066,-0.30937498807907104,-0.03999999910593033],"min":[-0.18937499821186066,-0.30937498807907104,-0.03999999910593033],"type":"VEC3"},{"bufferView":32,"componentType":5126,"count":17,"max":[0.800000011920929],"min":[0],"type":"SCALAR"},{"bufferView":33,"componentType":5126,"count":17,"max":[0.3058081567287445,0.30708590149879456,0.16714100539684296,0.9551795721054077],"min":[0.21745580434799194,0.16866271197795868,0.08587818592786789,0.9022550582885742],"type":"VEC4"},{"bufferView":34,"componentType":5126,"count":17,"max":[0.800000011920929],"min":[0],"type":"SCALAR"},{"bufferView":35,"componentType":5126,"count":17,"max":[0.09562499821186066,-0.24437500536441803,-0.03999999910593033],"min":[-0.30937498807907104,-0.45249998569488525,-0.03999999910593033],"type":"VEC3"},{"bufferView":36,"componentType":5126,"count":13,"max":[0.6000000238418579],"min":[0],"type":"SCALAR"},{"bufferView":37,"componentType":5126,"count":13,"max":[0.08831817656755447,0.06418801099061966,0.09769490361213684,1],"min":[-0.0051791127771139145,-0.006936619058251381,-0.0009689028956927359,0.9892095327377319],"type":"VEC4"},{"bufferView":38,"componentType":5126,"count":13,"max":[0.6000000238418579],"min":[0],"type":"SCALAR"},{"bufferView":39,"componentType":5126,"count":13,"max":[0,0.0006249999860301614,0.057500001043081284],"min":[0,-0.1574999988079071,-0.14937500655651093],"type":"VEC3"},{"bufferView":40,"componentType":5126,"count":5,"max":[0.4000000059604645],"min":[0],"type":"SCALAR"},{"bufferView":41,"componentType":5126,"count":5,"max":[0,0,0.002617990830913186,1],"min":[0,0,-0.001090830541215837,0.9999966025352478],"type":"VEC4"},{"bufferView":42,"componentType":5126,"count":21,"max":[1],"min":[0],"type":"SCALAR"},{"bufferView":43,"componentType":5126,"count":21,"max":[0.0010466412641108036,0.01754649728536606,0.10495553910732269,0.998615026473999],"min":[-0.0017150407657027245,-0.016286879777908325,0.05102451145648956,0.9943705797195435],"type":"VEC4"},{"bufferView":44,"componentType":5126,"count":21,"max":[1],"min":[0],"type":"SCALAR"},{"bufferView":45,"componentType":5126,"count":21,"max":[-0.0043750000186264515,-0.032499998807907104,0.02250000089406967],"min":[-0.00937500037252903,-0.05062500014901161,0.02250000089406967],"type":"VEC3"},{"bufferView":46,"componentType":5126,"count":21,"max":[1],"min":[0],"type":"SCALAR"},{"bufferView":47,"componentType":5126,"count":21,"max":[0.000014987038412073161,0.008028427138924599,0.002356148324906826,0.9999990463256836],"min":[-0.000011727676792361308,-0.0074175759218633175,-0.001832592417486012,0.9999676942825317],"type":"VEC4"},{"bufferView":48,"componentType":5126,"count":21,"max":[1],"min":[0],"type":"SCALAR"},{"bufferView":49,"componentType":5126,"count":21,"max":[0.006874999962747097,-0.010625000111758709,0.013749999925494194],"min":[-0.006874999962747097,-0.026249999180436134,0.008124999701976776],"type":"VEC3"},{"bufferView":50,"componentType":5126,"count":21,"max":[1],"min":[0],"type":"SCALAR"},{"bufferView":51,"componentType":5126,"count":21,"max":[0.000011697239642671775,0.006021348759531975,0.0023561681155115366,0.9999990463256836],"min":[-0.000008529249498678837,-0.00584681099280715,-0.001832592417486012,0.9999814033508301],"type":"VEC4"},{"bufferView":52,"componentType":5126,"count":21,"max":[1],"min":[0],"type":"SCALAR"},{"bufferView":53,"componentType":5126,"count":21,"max":[0.006874999962747097,0.009999999776482582,0.026249999180436134],"min":[-0.006874999962747097,-0.0043750000186264515,0.021250000223517418],"type":"VEC3"},{"bufferView":54,"componentType":5126,"count":21,"max":[1],"min":[0],"type":"SCALAR"},{"bufferView":55,"componentType":5126,"count":21,"max":[0.000011697239642671775,0.006021348759531975,0.0023561681155115366,0.9999990463256836],"min":[-0.000008529249498678837,-0.00584681099280715,-0.001832592417486012,0.9999814033508301],"type":"VEC4"},{"bufferView":56,"componentType":5126,"count":21,"max":[1],"min":[0],"type":"SCALAR"},{"bufferView":57,"componentType":5126,"count":21,"max":[0.006874999962747097,0.009999999776482582,0.026249999180436134],"min":[-0.006874999962747097,-0.0043750000186264515,0.021250000223517418],"type":"VEC3"},{"bufferView":58,"componentType":5126,"count":22,"max":[0.699999988079071],"min":[0],"type":"SCALAR"},{"bufferView":59,"componentType":5126,"count":22,"max":[0.07733884453773499,0.048983026295900345,0.06362234801054001,1],"min":[-0.40274667739868164,0,-0.0013898570323362947,0.9153114557266235],"type":"VEC4"},{"bufferView":60,"componentType":5126,"count":22,"max":[0.699999988079071],"min":[0],"type":"SCALAR"},{"bufferView":61,"componentType":5126,"count":22,"max":[0.6000000238418579,0,0.5062500238418579],"min":[-0.008124999701976776,-0.8062499761581421,-0.04874999821186066],"type":"VEC3"},{"bufferView":62,"componentType":5126,"count":12,"max":[0.699999988079071],"min":[0],"type":"SCALAR"},{"bufferView":63,"componentType":5126,"count":12,"max":[0.0005999567219987512,0.0023643989115953445,0.0037856935523450375,1],"min":[-0.00938994437456131,-0.00015002342115622014,-0.0007090397994033992,0.9999459385871887],"type":"VEC4"},{"bufferView":64,"componentType":5126,"count":13,"max":[0.4000000059604645],"min":[0],"type":"SCALAR"},{"bufferView":65,"componentType":5126,"count":13,"max":[0,0.4177951216697693,0.3039734661579132,1],"min":[-0.19100208580493927,0,0,0.8346050381660461],"type":"VEC4"},{"bufferView":66,"componentType":5126,"count":13,"max":[0.4000000059604645],"min":[0],"type":"SCALAR"},{"bufferView":67,"componentType":5126,"count":13,"max":[0.9049999713897705,0,0.4593749940395355],"min":[0,-0.856249988079071,0],"type":"VEC3"},{"bufferView":68,"componentType":5126,"count":7,"max":[0.36667001247406006],"min":[0],"type":"SCALAR"},{"bufferView":69,"componentType":5126,"count":7,"max":[0,0,0.003272480797022581,1],"min":[-0.0030543177854269743,-0.0000061399305195664056,0,0.9999929070472717],"type":"VEC4"},{"bufferView":70,"componentType":5126,"count":20,"max":[0.6333299875259399],"min":[0],"type":"SCALAR"},{"bufferView":71,"componentType":5126,"count":20,"max":[0.0007366972276940942,0.0010866117663681507,0.05198650062084198,1],"min":[0,0,0,0.9986469149589539],"type":"VEC4"},{"bufferView":72,"componentType":5126,"count":19,"max":[0.6000000238418579],"min":[0],"type":"SCALAR"},{"bufferView":73,"componentType":5126,"count":19,"max":[0,0,0],"min":[-0.017500000074505806,-0.011250000447034836,-0.04874999821186066],"type":"VEC3"}],"materials":[{"pbrMetallicRoughness":{"baseColorFactor":[0.24313725490196078,0.5647058823529412,1,1],"metallicFactor":0,"roughnessFactor":0.9},"extensions":{"KHR_materials_unlit":{}}},{"pbrMetallicRoughness":{"metallicFactor":0,"roughnessFactor":1},"alphaMode":"MASK","alphaCutoff":0.05,"doubleSided":true},{"pbrMetallicRoughness":{"metallicFactor":0,"roughnessFactor":1},"alphaMode":"MASK","alphaCutoff":0.05,"doubleSided":true}],"meshes":[{"primitives":[{"mode":4,"attributes":{"POSITION":0,"NORMAL":1,"TEXCOORD_0":2},"indices":3,"material":0}]},{"primitives":[{"mode":4,"attributes":{"POSITION":4,"NORMAL":5,"TEXCOORD_0":6},"indices":7,"material":1}]},{"primitives":[{"mode":4,"attributes":{"POSITION":8,"NORMAL":9,"TEXCOORD_0":10},"indices":11,"material":1}]},{"primitives":[{"mode":4,"attributes":{"POSITION":12,"NORMAL":13,"TEXCOORD_0":14},"indices":15,"material":2}]},{"primitives":[{"mode":4,"attributes":{"POSITION":16,"NORMAL":17,"TEXCOORD_0":18},"indices":19,"material":2}]}],"animations":[{"name":"idle","samplers":[{"input":20,"output":21,"interpolation":"LINEAR"},{"input":22,"output":23,"interpolation":"LINEAR"}],"channels":[{"sampler":0,"target":{"node":8,"path":"rotation"}},{"sampler":1,"target":{"node":8,"path":"translation"}}]},{"name":"run_start","samplers":[{"input":24,"output":25,"interpolation":"LINEAR"},{"input":26,"output":27,"interpolation":"LINEAR"}],"channels":[{"sampler":0,"target":{"node":8,"path":"rotation"}},{"sampler":1,"target":{"node":8,"path":"translation"}}]},{"name":"run_hold","samplers":[{"input":28,"output":29,"interpolation":"LINEAR"},{"input":30,"output":31,"interpolation":"LINEAR"}],"channels":[{"sampler":0,"target":{"node":8,"path":"rotation"}},{"sampler":1,"target":{"node":8,"path":"translation"}}]},{"name":"run","samplers":[{"input":32,"output":33,"interpolation":"LINEAR"},{"input":34,"output":35,"interpolation":"LINEAR"}],"channels":[{"sampler":0,"target":{"node":8,"path":"rotation"}},{"sampler":1,"target":{"node":8,"path":"translation"}}]},{"name":"run_end","samplers":[{"input":36,"output":37,"interpolation":"LINEAR"},{"input":38,"output":39,"interpolation":"LINEAR"},{"input":40,"output":41,"interpolation":"LINEAR"}],"channels":[{"sampler":0,"target":{"node":8,"path":"rotation"}},{"sampler":1,"target":{"node":8,"path":"translation"}},{"sampler":2,"target":{"node":1,"path":"rotation"}}]},{"name":"walk_forward","samplers":[{"input":42,"output":43,"interpolation":"LINEAR"},{"input":44,"output":45,"interpolation":"LINEAR"}],"channels":[{"sampler":0,"target":{"node":8,"path":"rotation"}},{"sampler":1,"target":{"node":8,"path":"translation"}}]},{"name":"walk_sideway","samplers":[{"input":46,"output":47,"interpolation":"LINEAR"},{"input":48,"output":49,"interpolation":"LINEAR"}],"channels":[{"sampler":0,"target":{"node":8,"path":"rotation"}},{"sampler":1,"target":{"node":8,"path":"translation"}}]},{"name":"walk_aiming","samplers":[{"input":50,"output":51,"interpolation":"LINEAR"},{"input":52,"output":53,"interpolation":"LINEAR"}],"channels":[{"sampler":0,"target":{"node":8,"path":"rotation"}},{"sampler":1,"target":{"node":8,"path":"translation"}}]},{"name":"walk_backward","samplers":[{"input":54,"output":55,"interpolation":"LINEAR"},{"input":56,"output":57,"interpolation":"LINEAR"}],"channels":[{"sampler":0,"target":{"node":8,"path":"rotation"}},{"sampler":1,"target":{"node":8,"path":"translation"}}]},{"name":"draw","samplers":[{"input":58,"output":59,"interpolation":"LINEAR"},{"input":60,"output":61,"interpolation":"LINEAR"},{"input":62,"output":63,"interpolation":"LINEAR"}],"channels":[{"sampler":0,"target":{"node":8,"path":"rotation"}},{"sampler":1,"target":{"node":8,"path":"translation"}},{"sampler":2,"target":{"node":1,"path":"rotation"}}]},{"name":"put_away","samplers":[{"input":64,"output":65,"interpolation":"LINEAR"},{"input":66,"output":67,"interpolation":"LINEAR"},{"input":68,"output":69,"interpolation":"LINEAR"}],"channels":[{"sampler":0,"target":{"node":8,"path":"rotation"}},{"sampler":1,"target":{"node":8,"path":"translation"}},{"sampler":2,"target":{"node":1,"path":"rotation"}}]},{"name":"ads","samplers":[{"input":70,"output":71,"interpolation":"LINEAR"},{"input":72,"output":73,"interpolation":"LINEAR"}],"channels":[{"sampler":0,"target":{"node":8,"path":"rotation"}},{"sampler":1,"target":{"node":8,"path":"translation"}}]}],"extensionsUsed":["KHR_materials_unlit"]}