{"asset":{"version":"2.0","generator":"Blockbench 4.9.4 glTF exporter"},"scenes":[{"nodes":[4],"name":"blockbench_export"}],"scene":0,"nodes":[{"name":"cube","mesh":0},{"name":"root","children":[0]},{"name":"camera"},{"name":"constraint"},{"children":[1,2,3]}],"bufferViews":[{"buffer":0,"byteOffset":0,"byteLength":288,"target":34962,"byteStride":12},{"buffer":0,"byteOffset":288,"byteLength":288,"target":34962,"byteStride":12},{"buffer":0,"byteOffset":576,"byteLength":192,"target":34962,"byteStride":8},{"buffer":0,"byteOffset":768,"byteLength":72,"target":34963},{"buffer":0,"byteOffset":840,"byteLength":876},{"buffer":0,"byteOffset":1716,"byteLength":3504},{"buffer":0,"byteOffset":5220,"byteLength":876},{"buffer":0,"byteOffset":6096,"byteLength":2628},{"buffer":0,"byteOffset":8724,"byteLength":28},{"buffer":0,"byteOffset":8752,"byteLength":112},{"buffer":0,"byteOffset":8864,"byteLength":28},{"buffer":0,"byteOffset":8892,"byteLength":84},{"buffer":0,"byteOffset":8976,"byteLength":68},{"buffer":0,"byteOffset":9044,"byteLength":272},{"buffer":0,"byteOffset":9316,"byteLength":68},{"buffer":0,"byteOffset":9384,"byteLength":204},{"buffer":0,"byteOffset":9588,"byteLength":4},{"buffer":0,"byteOffset":9592,"byteLength":16},{"buffer":0,"byteOffset":9608,"byteLength":4},{"buffer":0,"byteOffset":9612,"byteLength":12},{"buffer":0,"byteOffset":9624,"byteLength":56},{"buffer":0,"byteOffset":9680,"byteLength":224},{"buffer":0,"byteOffset":9904,"byteLength":56},{"buffer":0,"byteOffset":9960,"byteLength":168},{"buffer":0,"byteOffset":10128,"byteLength":20},{"buffer":0,"byteOffset":10148,"byteLength":80},{"buffer":0,"byteOffset":10228,"byteLength":84},{"buffer":0,"byteOffset":10312,"byteLength":252},{"buffer":0,"byteOffset":10564,"byteLength":84},{"buffer":0,"byteOffset":10648,"byteLength":336},{"buffer":0,"byteOffset":10984,"byteLength":84},{"buffer":0,"byteOffset":11068,"byteLength":252},{"buffer":0,"byteOffset":11320,"byteLength":84},{"buffer":0,"byteOffset":11404,"byteLength":336},{"buffer":0,"byteOffset":11740,"byteLength":84},{"buffer":0,"byteOffset":11824,"byteLength":252},{"buffer":0,"byteOffset":12076,"byteLength":84},{"buffer":0,"byteOffset":12160,"byteLength":336},{"buffer":0,"byteOffset":12496,"byteLength":84},{"buffer":0,"byteOffset":12580,"byteLength":252},{"buffer":0,"byteOffset":12832,"byteLength":88},{"buffer":0,"byteOffset":12920,"byteLength":352},{"buffer":0,"byteOffset":13272,"byteLength":84},{"buffer":0,"byteOffset":13356,"byteLength":252},{"buffer":0,"byteOffset":13608,"byteLength":44},{"buffer":0,"byteOffset":13652,"byteLength":176},{"buffer":0,"byteOffset":13828,"byteLength":8},{"buffer":0,"byteOffset":13836,"byteLength":32},{"buffer":0,"byteOffset":13868,"byteLength":8},{"buffer":0,"byteOffset":13876,"byteLength":24},{"buffer":0,"byteOffset":13900,"byteLength":56},{"buffer":0,"byteOffset":13956,"byteLength":224},{"buffer":0,"byteOffset":14180,"byteLength":60},{"buffer":0,"byteOffset":14240,"byteLength":180},{"buffer":0,"byteOffset":14420,"byteLength":40},{"buffer":0,"byteOffset":14460,"byteLength":160},{"buffer":0,"byteOffset":14620,"byteLength":8},{"buffer":0,"byteOffset":14628,"byteLength":32},{"buffer":0,"byteOffset":14660,"byteLength":8},{"buffer":0,"byteOffset":14668,"byteLength":24},{"buffer":0,"byteOffset":14692,"byteLength":80},{"buffer":0,"byteOffset":14772,"byteLength":320},{"buffer":0,"byteOffset":15092,"byteLength":76},{"buffer":0,"byteOffset":15168,"byteLength":228},{"buffer":0,"byteOffset":15396,"byteLength":76},{"buffer":0,"byteOffset":15472,"byteLength":304},{"buffer":0,"byteOffset":15776,"byteLength":76},{"buffer":0,"byteOffset":15852,"byteLength":228}],"buffers":[{"byteLength":16080,"uri":"data:application/octet-stream;base64,"}],"accessors":[{"bufferView":0,"componentType":5126,"count":24,"max":[0.0625,0.125,0.25],"min":[-0.0625,0,-0.25],"type":"VEC3"},{"bufferView":1,"componentType":5126,"count":24,"max":[1,1,1],"min":[-1,-1,-1],"type":"VEC3"},{"bufferView":2,"componentType":5126,"count":24,"max":[0.5,0.5],"min":[0,0],"type":"VEC2"},{"bufferView":3,"componentType":5123,"count":36,"max":[23],"min":[0],"type":"SCALAR"},{"bufferView":4,"componentType":5126,"count":219,"max":[7.266670227050781],"min":[0],"type":"SCALAR"},{"bufferView":5,"componentType":5126,"count":219,"max":[0.006110673304647207,0.008379081264138222,0.012361879460513592,1],"min":[-0.007328503765165806,-0.0006108621601015329,-0.002356192097067833,0.9998639822006226],"type":"VEC4"},{"bufferView":6,"componentType":5126,"count":219,"max":[7.266670227050781],"min":[0],"type":"SCALAR"},{"bufferView":7,"componentType":5126,"count":219,"max":[0.0031250000465661287,0.0006249999860301614,0],"min":[0,-0.010625000111758709,0],"type":"VEC3"},{"bufferView":8,"componentType":5126,"count":7,"max":[0.30000001192092896],"min":[0],"type":"SCALAR"},{"bufferView":9,"componentType":5126,"count":7,"max":[0.10459809750318527,0.36926090717315674,0.14947882294654846,1],"min":[0,0,0,0.9124250411987305],"type":"VEC4"},{"bufferView":10,"componentType":5126,"count":7,"max":[0.30000001192092896],"min":[0],"type":"SCALAR"},{"bufferView":11,"componentType":5126,"count":7,"max":[0.011874999850988388,0,0],"min":[-0.023749999701976776,-0.3256250023841858,-0.032499998807907104],"type":"VEC3"},{"bufferView":12,"componentType":5126,"count":17,"max":[0.800000011920929],"min":[0],"type":"SCALAR"},{"bufferView":13,"componentType":5126,"count":17,"max":[0.2140478640794754,0.48523399233818054,0.16206687688827515,0.9100120663642883],"min":[0.13926124572753906,0.36078447103500366,0.09226463735103607,0.8565918207168579],"type":"VEC4"},{"bufferView":14,"componentType":5126,"count":17,"max":[0.800000011920929],"min":[0],"type":"SCALAR"},{"bufferView":15,"componentType":5126,"count":17,"max":[0.2043749988079071,-0.24250000715255737,-0.03999999910593033],"min":[-0.03999999910593033,-0.45249998569488525,-0.03999999910593033],"type":"VEC3"},{"bufferView":16,"componentType":5126,"count":1,"max":[0],"min":[0],"type":"SCALAR"},{"bufferView":17,"componentType":5126,"count":1,"max":[0.15486623346805573,0.4634091258049011,0.10121438652276993,0.866616427898407],"min":[0.15486623346805573,0.4634091258049011,0.10121438652276993,0.866616427898407],"type":"VEC4"},{"bufferView":18,"componentType":5126,"count":1,"max":[0],"min":[0],"type":"SCALAR"},{"bufferView":19,"componentType":5126,"count":1,"max":[0.10249999910593033,-0.21125000715255737,-0.03999999910593033],"min":[0.10249999910593033,-0.21125000715255737,-0.03999999910593033],"type":"VEC3"},{"bufferView":20,"componentType":5126,"count":14,"max":[0.6499999761581421],"min":[0],"type":"SCALAR"},{"bufferView":21,"componentType":5126,"count":14,"max":[0.10157590359449387,0.18261055648326874,0.13403642177581787,1],"min":[-0.0051791127771139145,-0.006936619058251381,-0.0009689028956927359,0.9686949849128723],"type":"VEC4"},{"bufferView":22,"componentType":5126,"count":14,"max":[0.6499999761581421],"min":[0],"type":"SCALAR"},{"bufferView":23,"componentType":5126,"count":14,"max":[0.09937500208616257,0.0006249999860301614,0.057500001043081284],"min":[-0.0018749999580904841,-0.3956249952316284,-0.1599999964237213],"type":"VEC3"},{"bufferView":24,"componentType":5126,"count":5,"max":[0.4000000059604645],"min":[0],"type":"SCALAR"},{"bufferView":25,"componentType":5126,"count":5,"max":[0,0,0.002617990830913186,1],"min":[0,0,-0.001090830541215837,0.9999966025352478],"type":"VEC4"},{"bufferView":26,"componentType":5126,"count":21,"max":[1],"min":[0],"type":"SCALAR"},{"bufferView":27,"componentType":5126,"count":21,"max":[-0.0043750000186264515,0.008124999701976776,0.02250000089406967],"min":[-0.00937500037252903,-0.009999999776482582,0.02250000089406967],"type":"VEC3"},{"bufferView":28,"componentType":5126,"count":21,"max":[1],"min":[0],"type":"SCALAR"},{"bufferView":29,"componentType":5126,"count":21,"max":[0.0010466412641108036,0.01754649728536606,0.10495553910732269,0.998615026473999],"min":[-0.0017150407657027245,-0.016286879777908325,0.05102451145648956,0.9943705797195435],"type":"VEC4"},{"bufferView":30,"componentType":5126,"count":21,"max":[1],"min":[0],"type":"SCALAR"},{"bufferView":31,"componentType":5126,"count":21,"max":[-0.0043750000186264515,-0.032499998807907104,0.02250000089406967],"min":[-0.00937500037252903,-0.05062500014901161,0.02250000089406967],"type":"VEC3"},{"bufferView":32,"componentType":5126,"count":21,"max":[1],"min":[0],"type":"SCALAR"},{"bufferView":33,"componentType":5126,"count":21,"max":[0.000014987038412073161,0.008028427138924599,0.002356148324906826,0.9999990463256836],"min":[-0.000011727676792361308,-0.0074175759218633175,-0.001832592417486012,0.9999676942825317],"type":"VEC4"},{"bufferView":34,"componentType":5126,"count":21,"max":[1],"min":[0],"type":"SCALAR"},{"bufferView":35,"componentType":5126,"count":21,"max":[0.006874999962747097,-0.010625000111758709,0.013124999590218067],"min":[-0.006874999962747097,-0.026249999180436134,0.008124999701976776],"type":"VEC3"},{"bufferView":36,"componentType":5126,"count":21,"max":[1],"min":[0],"type":"SCALAR"},{"bufferView":37,"componentType":5126,"count":21,"max":[0.000011697239642671775,0.006021348759531975,0.0023561681155115366,0.9999990463256836],"min":[-0.000008529249498678837,-0.00584681099280715,-0.001832592417486012,0.9999814033508301],"type":"VEC4"},{"bufferView":38,"componentType":5126,"count":21,"max":[1],"min":[0],"type":"SCALAR"},{"bufferView":39,"componentType":5126,"count":21,"max":[0.006874999962747097,0.009999999776482582,0.026249999180436134],"min":[-0.006874999962747097,-0.0043750000186264515,0.021250000223517418],"type":"VEC3"},{"bufferView":40,"componentType":5126,"count":22,"max":[0.699999988079071],"min":[0],"type":"SCALAR"},{"bufferView":41,"componentType":5126,"count":22,"max":[0.00018070032820105553,0.2667718529701233,0.28208351135253906,1],"min":[-0.08852580934762955,-0.002781919203698635,-0.011691629886627197,0.9172921180725098],"type":"VEC4"},{"bufferView":42,"componentType":5126,"count":21,"max":[0.666670024394989],"min":[0],"type":"SCALAR"},{"bufferView":43,"componentType":5126,"count":21,"max":[0.19875000417232513,0,1.5],"min":[0,-0.3487499952316284,-0.06062500178813934],"type":"VEC3"},{"bufferView":44,"componentType":5126,"count":11,"max":[0.699999988079071],"min":[0],"type":"SCALAR"},{"bufferView":45,"componentType":5126,"count":11,"max":[0.0015270934673026204,0.0000884657638380304,0.004606763832271099,1],"min":[-0.008939648978412151,-0.0019973283633589745,-0.0015271493466570973,0.9999530911445618],"type":"VEC4"},{"bufferView":46,"componentType":5126,"count":2,"max":[0.30000001192092896],"min":[0],"type":"SCALAR"},{"bufferView":47,"componentType":5126,"count":2,"max":[-0.0017422768287360668,-0.0017483691917732358,0.00864972174167633,0.9999954104423523],"min":[-0.00864972174167633,-0.0088020209223032,0.0017422768287360668,0.9998864531517029],"type":"VEC4"},{"bufferView":48,"componentType":5126,"count":2,"max":[0.30000001192092896],"min":[0],"type":"SCALAR"},{"bufferView":49,"componentType":5126,"count":2,"max":[-0.0062500000931322575,0.0625,0.0625],"min":[-0.0625,0.0062500000931322575,0.0062500000931322575],"type":"VEC3"},{"bufferView":50,"componentType":5126,"count":14,"max":[0.4333299994468689],"min":[0],"type":"SCALAR"},{"bufferView":51,"componentType":5126,"count":14,"max":[0.006191413849592209,0.47205084562301636,0.2585362195968628,1],"min":[-0.22577229142189026,0,-0.01927846670150757,0.8120061159133911],"type":"VEC4"},{"bufferView":52,"componentType":5126,"count":15,"max":[0.4666700065135956],"min":[0],"type":"SCALAR"},{"bufferView":53,"componentType":5126,"count":15,"max":[0.041875001043081284,0,0.021250000223517418],"min":[-0.2581250071525574,-0.4325000047683716,-0.023125000298023224],"type":"VEC3"},{"bufferView":54,"componentType":5126,"count":10,"max":[0.5333300232887268],"min":[0],"type":"SCALAR"},{"bufferView":55,"componentType":5126,"count":10,"max":[0,0.0000028557844871102134,0.0026179500855505466,1],"min":[-0.005585005506873131,-0.000014621543414250482,-0.0010908268159255385,0.9999809861183167],"type":"VEC4"},{"bufferView":56,"componentType":5126,"count":2,"max":[0.3333333432674408],"min":[0],"type":"SCALAR"},{"bufferView":57,"componentType":5126,"count":2,"max":[-0.0017422768287360668,-0.0017483691917732358,0.00864972174167633,0.9999954104423523],"min":[-0.00864972174167633,-0.0088020209223032,0.0017422768287360668,0.9998864531517029],"type":"VEC4"},{"bufferView":58,"componentType":5126,"count":2,"max":[0.3333333432674408],"min":[0],"type":"SCALAR"},{"bufferView":59,"componentType":5126,"count":2,"max":[-0.0062500000931322575,0.0625,0.0625],"min":[-0.0625,0.0062500000931322575,0.0062500000931322575],"type":"VEC3"},{"bufferView":60,"componentType":5126,"count":20,"max":[0.6333299875259399],"min":[0],"type":"SCALAR"},{"bufferView":61,"componentType":5126,"count":20,"max":[0.0007366972276940942,0.0010866117663681507,0.05198650062084198,1],"min":[0,0,0,0.9986469149589539],"type":"VEC4"},{"bufferView":62,"componentType":5126,"count":19,"max":[0.6000000238418579],"min":[0],"type":"SCALAR"},{"bufferView":63,"componentType":5126,"count":19,"max":[0,0,0],"min":[-0.017500000074505806,-0.011250000447034836,-0.04874999821186066],"type":"VEC3"},{"bufferView":64,"componentType":5126,"count":19,"max":[0.6000000238418579],"min":[0],"type":"SCALAR"},{"bufferView":65,"componentType":5126,"count":19,"max":[0.00014691660180687904,0.002969606313854456,0.0171027984470129,1],"min":[-7.920045845821733e-7,0,-0.0007854814757592976,0.9998493194580078],"type":"VEC4"},{"bufferView":66,"componentType":5126,"count":19,"max":[0.6000000238418579],"min":[0],"type":"SCALAR"},{"bufferView":67,"componentType":5126,"count":19,"max":[0.0024999999441206455,0,0],"min":[0,-0.016875000670552254,-0.03437500074505806],"type":"VEC3"}],"materials":[{"pbrMetallicRoughness":{"metallicFactor":0,"roughnessFactor":1},"alphaMode":"MASK","alphaCutoff":0.05,"doubleSided":true}],"meshes":[{"primitives":[{"mode":4,"attributes":{"POSITION":0,"NORMAL":1,"TEXCOORD_0":2},"indices":3,"material":0}]}],"animations":[{"name":"idle","samplers":[{"input":4,"output":5,"interpolation":"LINEAR"},{"input":6,"output":7,"interpolation":"LINEAR"}],"channels":[{"sampler":0,"target":{"node":1,"path":"rotation"}},{"sampler":1,"target":{"node":1,"path":"translation"}}]},{"name":"run_start","samplers":[{"input":8,"output":9,"interpolation":"LINEAR"},{"input":10,"output":11,"interpolation":"LINEAR"}],"channels":[{"sampler":0,"target":{"node":1,"path":"rotation"}},{"sampler":1,"target":{"node":1,"path":"translation"}}]},{"name":"run","samplers":[{"input":12,"output":13,"interpolation":"LINEAR"},{"input":14,"output":15,"interpolation":"LINEAR"}],"channels":[{"sampler":0,"target":{"node":1,"path":"rotation"}},{"sampler":1,"target":{"node":1,"path":"translation"}}]},{"name":"run_hold","samplers":[{"input":16,"output":17,"interpolation":"LINEAR"},{"input":18,"output":19,"interpolation":"LINEAR"}],"channels":[{"sampler":0,"target":{"node":1,"path":"rotation"}},{"sampler":1,"target":{"node":1,"path":"translation"}}]},{"name":"run_end","samplers":[{"input":20,"output":21,"interpolation":"LINEAR"},{"input":22,"output":23,"interpolation":"LINEAR"},{"input":24,"output":25,"interpolation":"LINEAR"}],"channels":[{"sampler":0,"target":{"node":1,"path":"rotation"}},{"sampler":1,"target":{"node":1,"path":"translation"}},{"sampler":2,"target":{"node":2,"path":"rotation"}}]},{"name":"walk_aiming","samplers":[{"input":26,"output":27,"interpolation":"LINEAR"}],"channels":[{"sampler":0,"target":{"node":1,"path":"translation"}}]},{"name":"walk_forward","samplers":[{"input":28,"output":29,"interpolation":"LINEAR"},{"input":30,"output":31,"interpolation":"LINEAR"}],"channels":[{"sampler":0,"target":{"node":1,"path":"rotation"}},{"sampler":1,"target":{"node":1,"path":"translation"}}]},{"name":"walk_sideway","samplers":[{"input":32,"output":33,"interpolation":"LINEAR"},{"input":34,"output":35,"interpolation":"LINEAR"}],"channels":[{"sampler":0,"target":{"node":1,"path":"rotation"}},{"sampler":1,"target":{"node":1,"path":"translation"}}]},{"name":"walk_backward","samplers":[{"input":36,"output":37,"interpolation":"LINEAR"},{"input":38,"output":39,"interpolation":"LINEAR"}],"channels":[{"sampler":0,"target":{"node":1,"path":"rotation"}},{"sampler":1,"target":{"node":1,"path":"translation"}}]},{"name":"draw","samplers":[{"input":40,"output":41,"interpolation":"LINEAR"},{"input":42,"output":43,"interpolation":"LINEAR"},{"input":44,"output":45,"interpolation":"LINEAR"},{"input":46,"output":47,"interpolation":"LINEAR"},{"input":48,"output":49,"interpolation":"LINEAR"}],"channels":[{"sampler":0,"target":{"node":1,"path":"rotation"}},{"sampler":1,"target":{"node":1,"path":"translation"}},{"sampler":2,"target":{"node":2,"path":"rotation"}},{"sampler":3,"target":{"node":3,"path":"rotation"}},{"sampler":4,"target":{"node":3,"path":"translation"}}]},{"name":"put_away","samplers":[{"input":50,"output":51,"interpolation":"LINEAR"},{"input":52,"output":53,"interpolation":"LINEAR"},{"input":54,"output":55,"interpolation":"LINEAR"},{"input":56,"output":57,"interpolation":"LINEAR"},{"input":58,"output":59,"interpolation":"LINEAR"}],"channels":[{"sampler":0,"target":{"node":1,"path":"rotation"}},{"sampler":1,"target":{"node":1,"path":"translation"}},{"sampler":2,"target":{"node":2,"path":"rotation"}},{"sampler":3,"target":{"node":3,"path":"rotation"}},{"sampler":4,"target":{"node":3,"path":"translation"}}]},{"name":"ADS_up","samplers":[{"input":60,"output":61,"interpolation":"LINEAR"},{"input":62,"output":63,"interpolation":"LINEAR"}],"channels":[{"sampler":0,"target":{"node":1,"path":"rotation"}},{"sampler":1,"target":{"node":1,"path":"translation"}}]},{"name":"ADS_down","samplers":[{"input":64,"output":65,"interpolation":"LINEAR"},{"input":66,"output":67,"interpolation":"LINEAR"}],"channels":[{"sampler":0,"target":{"node":1,"path":"rotation"}},{"sampler":1,"target":{"node":1,"path":"translation"}}]}]}